<?xml version="1.0" encoding="UTF-8" standalone="no"?>
<svg
   version="1.1"
   style="display:block"
   viewBox="0 0 1332 1248"
   width="333"
   height="312"
   preserveAspectRatio="none"
   id="svg63"
   xmlns="http://www.w3.org/2000/svg"
   xmlns:svg="http://www.w3.org/2000/svg">
  <defs
     id="defs8">
    <linearGradient
       id="Gradient1"
       gradientUnits="userSpaceOnUse"
       x1="906.39001"
       y1="430.194"
       x2="1035.9"
       y2="382.797">
      <stop
         class="stop0"
         offset="0"
         stop-opacity="1"
         stop-color="rgb(232,194,233)"
         id="stop1" />
      <stop
         class="stop1"
         offset="1"
         stop-opacity="1"
         stop-color="rgb(244,225,245)"
         id="stop2" />
    </linearGradient>
    <linearGradient
       id="Gradient2"
       gradientUnits="userSpaceOnUse"
       x1="668.74103"
       y1="263.71799"
       x2="523.46997"
       y2="169.877">
      <stop
         class="stop0"
         offset="0"
         stop-opacity="1"
         stop-color="rgb(172,88,194)"
         id="stop3" />
      <stop
         class="stop1"
         offset="1"
         stop-opacity="1"
         stop-color="rgb(196,112,209)"
         id="stop4" />
    </linearGradient>
    <linearGradient
       id="Gradient3"
       gradientUnits="userSpaceOnUse"
       x1="528.40698"
       y1="769.64899"
       x2="344.629"
       y2="674.51099">
      <stop
         class="stop0"
         offset="0"
         stop-opacity="1"
         stop-color="rgb(138,71,185)"
         id="stop5" />
      <stop
         class="stop1"
         offset="1"
         stop-opacity="1"
         stop-color="rgb(167,94,201)"
         id="stop6" />
    </linearGradient>
    <linearGradient
       id="Gradient4"
       gradientUnits="userSpaceOnUse"
       x1="431.422"
       y1="579.50403"
       x2="515.92499"
       y2="548.49799">
      <stop
         class="stop0"
         offset="0"
         stop-opacity="1"
         stop-color="rgb(175,95,205)"
         id="stop7" />
      <stop
         class="stop1"
         offset="1"
         stop-opacity="1"
         stop-color="rgb(199,142,224)"
         id="stop8" />
    </linearGradient>
  </defs>
  <path
     fill="#282465"
     d="m 478.242,45.7875 c 3.388,-0.6874 8.03,-1.5382 11.392,-1.7255 12.389,-0.6898 32.189,14.0934 40.781,22.2731 25.03,15.8946 199.293,144.7299 207.048,157.4099 5.517,9.023 22.538,92.394 26.046,108.165 l 44.098,196.997 c 5.586,-33.703 21.155,-73.04 30.923,-106.244 3.338,-11.348 10.464,-26.731 12.455,-37.948 8.82,-7.236 21.857,-13.818 32.34,-18.41 23.394,-11.662 61.943,-27.473 85.624,-38.02 17.609,-7.843 119.291,-54.425 131.811,-52.279 18.38,13.762 29.49,54.577 38.03,76.447 6.7,17.171 14.26,36.827 20.14,54.252 7.78,19.956 17.52,45.729 23.7,66.563 5.75,13.111 16.4,41.962 17.7,56.2 0.4,4.32 -4.1,17.36 -6.02,22.019 -12.4,30.161 -22.07,61.14 -35.31,90.982 -6.61,14.119 -12.69,31.743 -18.54,46.531 l -36.26,90.221 c -2.17,5.299 -4.41,10.562 -6.84,16.763 -5.15,13.131 -6.53,9.585 4.79,19.179 1.65,1.405 11.76,10.202 13.06,12.179 16.26,13.497 30.11,28.222 43.84,44.208 -2.04,10.693 -6.86,30.791 -11.5,40.64 l -28.68,79.031 c -3.33,10.779 -8.28,22.289 -11.76,33.249 -7.58,23.82 -14.38,45.84 -24.94,68.72 -12.67,7.32 -30.6,15.36 -43.98,21.77 -28.27,13.58 -56.628,26.97 -85.078,40.17 -34.269,16.18 -69.308,35.87 -104.592,50.15 -26.734,-7.84 -75.256,-29.58 -101.481,-35.88 -16.122,0.62 -141.17,37.97 -145.842,36.4 -67.201,-22.53 -136.58,-51.3 -204.025,-74.79 -22.53,-7.85 -46.824,-16.3 -68.836,-25.38 -0.992,-1.69 -1.922,-3.42 -2.789,-5.18 -8.591,-17.17 -16.064,-39.69 -23.277,-58 -5.364,-13.62 -25.061,-58.377 -18.968,-70.817 6.138,-12.533 38.617,-43.911 51.415,-49.189 -4.364,-6.215 -10.134,-16.584 -14.288,-23.344 l -26.793,-43 C 279.63,833.62 264.525,811.129 249.961,788.907 231.672,761.001 213.174,730.11 193.89,703.139 l -5.25,-117.352 c -1.211,-23.197 -3.368,-48.535 -3.754,-71.555 1.896,-3.056 4.117,-5.899 6.624,-8.479 2.64,-2.763 6.484,-5.271 10.451,-5.114 13.242,0.522 163.231,65.59 178.136,75.237 12.297,7.96 21.834,21.242 31.993,31.724 -9.154,-24.172 -16.17,-55.547 -22.375,-80.858 l -24.438,-99.515 c -5.312,-22.088 -23.575,-91.135 -24.261,-111.422 1.873,-3.085 3.025,-6.256 4.489,-9.542 30.033,-67.406 64.527,-133.047 97.931,-198.835 8.49,-16.7216 22.918,-48.313 34.806,-61.6405 z"
     id="path9" />
  <path
     fill="#1b1d55"
     d="m 530.415,66.3351 c 25.03,15.8946 199.293,144.7299 207.048,157.4099 5.517,9.023 22.538,92.394 26.046,108.165 l 44.098,196.997 c 5.586,-33.703 21.155,-73.04 30.923,-106.244 3.338,-11.348 10.464,-26.731 12.455,-37.948 8.82,-7.236 21.857,-13.818 32.34,-18.41 1.531,0.118 0.774,-0.05 2.18,0.978 -6.788,4.182 -28.58,13.024 -30.898,18.106 -7.277,15.946 -46.615,129.821 -40.556,136.409 l -1.081,0.739 0.672,-0.086 c 1.744,-3.778 1.596,-7.765 1.8,-11.952 1.555,2.222 1.973,2.799 3.897,4.686 0.876,-2.149 0.795,-2.375 2.559,-3.973 l 0.047,1.499 c -3.191,6.462 -10.809,26.256 -19.097,22.949 -2.684,-4.65 -6.668,-10.017 -6.889,-15.074 1.812,3.041 2.759,4.582 5.04,7.419 2.915,-1.055 2.328,-0.348 3.638,-2.513 -10.604,-54.619 -22.815,-108.914 -36.615,-162.814 -1.104,-4.19 -2.423,-15.014 -3.663,-17.374 -2.309,0.349 -3.302,0.672 -5.604,0.111 -1.635,-4.104 -9.283,-34.873 -8.172,-40.709 0.229,-1.205 1.88,-1.263 3.425,-1.687 1.585,-5.171 -12.424,-50.384 -12.31,-58.389 0.029,-2.08 -1.018,-6.127 -1.815,-8.094 l -1.273,-0.363 c -1.595,3.308 -1.224,6.095 -1.214,9.822 l -1.006,0.737 c -2.948,-6.433 -0.789,-9.868 -5.004,-17.359 -5.744,-10.208 -15.442,-16.947 -24.686,-23.817 -0.894,-0.787 -5.009,-2.084 -5.516,-2.788 -4.089,-5.677 -34.553,-24.492 -34.847,-29.452 6.483,1.464 14.931,11.426 19.93,12.064 -2.218,-3.729 -44.287,-34.042 -50.766,-39.131 -0.402,0.74 -0.751,1.344 -1.178,2.063 -2.351,-0.816 -1.594,-0.509 -3.37,-2.757 l 1.29,-1.173 C 621.791,130.574 531.723,73.8655 530.415,66.3351 Z"
     id="path10" />
  <path
     fill="#1b1d55"
     d="m 1115.21,827.342 -0.53,1.633 c -3.55,-1.21 -15.03,-12.436 -17.87,-15.761 -1.02,-1.206 -4.47,-1.687 -6.92,-4.093 3.19,-12.76 10.75,-16.138 8.57,-31.55 -0.62,-4.368 6.94,-22.292 11.28,-25.636 0.29,2.712 -4.15,13.678 -5.27,17.346 l 0.68,0.025 c 2.5,-3.784 17.57,-39.808 16.9,-42.839 l -2.9,-0.071 -0.36,-1.759 c 8.47,-23.587 14.47,-47.925 26.74,-69.81 3.26,-5.808 18.33,-44.685 19.63,-45.447 l 0.44,1.808 c -4.11,7.194 -7.21,16.539 -9.08,24.706 -0.74,3.274 0.51,3.86 2.48,6.575 -6.61,14.119 -12.69,31.743 -18.54,46.531 l -36.26,90.221 c -2.17,5.299 -4.41,10.562 -6.84,16.763 -5.15,13.131 -6.53,9.585 4.79,19.179 1.65,1.405 11.76,10.202 13.06,12.179 z"
     id="path11" />
  <path
     fill="#1b1d55"
     d="m 1182.63,473.268 -1.1,1.451 c -1.07,-3.055 -1.23,-3.743 -2.96,-6.413 -0.31,2.259 3.74,18.43 4.47,21.901 l -1.03,0.05 c -3.6,-5.358 -10.2,-23.283 -9.58,-29.643 l 0.82,-0.315 c 0.41,1.806 0.3,2.297 1.68,3.505 0.9,-3.385 0.34,-5.111 -0.29,-8.486 -2.22,-2.418 -1.16,-1.965 -3.98,-2.307 0.9,2.18 0.81,2.639 0.87,4.919 l -1.25,0.75 c -2.32,-2.411 -1.65,-4.504 -2.51,-7.396 -8.24,-27.608 -23.67,-57.161 -30.65,-84.634 l 1.09,-0.661 c 8.79,5.79 5.3,33.304 20.72,40.716 7.78,19.956 17.52,45.729 23.7,66.563 z"
     id="path12" />
  <path
     fill="#1b1d55"
     d="m 1118.87,991.221 c -1.13,-2.568 -1.15,-2.934 -1.15,-5.749 3.03,-4.469 3.32,-7.102 4.02,-12.257 l -0.74,-0.58 c -0.89,1.936 -1,2.473 -2.62,3.944 l -1.27,-1.075 c 0.49,-7.394 18.92,-49.6 23.81,-57.534 2.69,-4.373 2.01,-4.257 6.63,-5.78 z"
     id="path13" />
  <path
     fill="#d1d0d0"
     d="m 868.236,801.349 11.678,-2.931 c 3.042,9.19 59.146,96.093 66.512,103.689 -0.613,0.754 -1.411,1.735 -2.394,2.943 -1.887,26.146 -0.785,53.288 -1.219,79.579 -0.015,0.944 0.507,2.664 0.635,3.13 l 1.079,0.672 c -1.185,4.214 -1.679,4.686 -4.531,7.872 -10.913,12.107 -23.074,29.597 -33.303,42.987 -7.617,9.97 -20.305,23.9 -26.718,33.43 -9.987,20.49 -30.729,66.34 -33.58,88.66 -4.336,0.85 -42.136,-16.32 -52.684,-19.28 -14.889,-5.56 -30.359,-11.09 -44.96,-17.26 l -12.584,4.5 c -0.732,2.14 -1.28,5.62 -3.478,6.17 -23.586,5.86 -74.27,24.3 -96.067,18.04 -5.351,1.53 -32.709,7.73 -35.043,8.97 0.897,-12.86 6.829,-34.98 10.145,-48.18 7.919,-20.45 12.462,-43.94 20.153,-64.75 3.062,-9.31 1.814,-19.17 4.393,-28.6 1.274,-4.67 4.853,-4.14 6.164,-8.38 l -1.657,-2.62 c 2.956,-2.08 19.247,-9.66 23.568,-11.834 10.503,-5.277 19.14,-10.283 29.265,-16.214 -1.791,-5.376 -3.929,-16.755 -7.762,-20.005 -12.946,6.976 -22.626,13.239 -36.28,19.784 -8.324,-14.32 -33.651,-48.342 -44.619,-59.895 6.091,-3.762 14.205,-12.276 19.087,-15.005 11.647,-6.513 15.357,-5.763 26.716,-14.604 14.979,8.194 20.121,11.653 37.177,13.437 9.117,-8.303 13.897,-19.65 19.622,-30.639 6.205,-12.552 22.148,-38.593 23.892,-50.442 14.782,-1.46 38.531,-6.689 53.81,-9.384 z"
     id="path14" />
  <path
     fill="#b4aeb3"
     d="m 685.848,961.937 c 2.36,-5.219 -9.212,-48.428 6.576,-57.235 6.591,-0.513 8.587,2.543 11.613,8.183 18.389,34.275 36.988,75.799 54.785,109.645 -0.459,-0.88 64.488,24.46 71.878,29.43 7.975,1.68 11.994,2.46 19.618,5.45 8.757,5.34 20.138,9.82 29.657,15.31 -9.987,20.49 -30.729,66.34 -33.58,88.66 -4.336,0.85 -42.136,-16.32 -52.684,-19.28 -14.889,-5.56 -30.359,-11.09 -44.96,-17.26 l -12.584,4.5 c -0.732,2.14 -1.28,5.62 -3.478,6.17 -23.586,5.86 -74.27,24.3 -96.067,18.04 -5.351,1.53 -32.709,7.73 -35.043,8.97 0.897,-12.86 6.829,-34.98 10.145,-48.18 7.919,-20.45 12.462,-43.94 20.153,-64.75 3.062,-9.31 1.814,-19.17 4.393,-28.6 1.274,-4.67 4.853,-4.14 6.164,-8.38 l -1.657,-2.62 c 2.956,-2.08 19.247,-9.66 23.568,-11.834 10.503,-5.277 19.14,-10.283 29.265,-16.214 -1.791,-5.376 -3.929,-16.755 -7.762,-20.005 z"
     id="path15" />
  <path
     fill="#d1d0d0"
     d="m 850.318,1057.41 c 8.757,5.34 20.138,9.82 29.657,15.31 -9.987,20.49 -30.729,66.34 -33.58,88.66 -4.336,0.85 -42.136,-16.32 -52.684,-19.28 2.007,-5.9 50.326,-77.04 56.607,-84.69 z"
     id="path16" />
  <path
     fill="#1b1d55"
     d="m 736.167,1129.34 c -0.732,2.14 -1.28,5.62 -3.478,6.17 -23.586,5.86 -74.27,24.3 -96.067,18.04 24.595,-7.98 49.469,-12.01 74.482,-18.24 8.362,-2.08 16.648,-4.09 25.063,-5.97 z"
     id="path17" />
  <path
     fill="#d1d0d0"
     d="m 708.065,1001.42 c 11.405,15.03 17.302,38.26 28.273,54.03 -0.475,3.9 -0.515,7.99 -2.584,11.15 0.079,3.02 0.144,3.64 0.959,6.54 -4.202,5.7 -8.526,11.31 -12.968,16.82 -1.08,4.4 -4.671,7.08 -5.906,11.1 -0.65,2.11 -0.039,4.66 -0.911,6.64 -2.346,5.35 -56.088,10.59 -65.136,12.39 -5.164,1.04 -9.922,2.93 -14.76,4.95 2.357,-7.67 7.864,-30.86 9.989,-35.57 14.675,-32.54 39.756,-61.77 63.044,-88.05 z"
     id="path18" />
  <path
     fill="#f2fbfb"
     d="m 693.119,1078 c 1.718,-10.99 16.432,-38.46 31.836,-27.24 2.863,2.09 8.528,11.95 8.799,15.84 0.079,3.02 0.144,3.64 0.959,6.54 -4.202,5.7 -8.526,11.31 -12.968,16.82 -3.587,3.37 -6.55,8.09 -9.37,12.2 -6.978,-7.72 -14.024,-15.16 -19.256,-24.16 z"
     id="path19" />
  <path
     fill="#d1d0d0"
     d="m 736.338,1055.45 c 1.749,2.76 1.984,3.13 2.055,6.39 l 1.27,0.98 5.246,-0.68 c -0.718,3.83 -6.115,8.27 -9.248,10.37 l -0.948,0.63 c -0.815,-2.9 -0.88,-3.52 -0.959,-6.54 2.069,-3.16 2.109,-7.25 2.584,-11.15 z"
     id="path20" />
  <path
     fill="#f2fbfb"
     d="m 868.236,801.349 2.766,0.628 c -0.125,2.639 -3.118,7.867 -4.332,10.474 -24.45,52.469 -53.816,105.672 -66.616,162.489 -15.288,-24.9 -39.109,-59.752 -61.051,-79.782 -6.78,-6.19 -24.877,-14.431 -31.452,-20.143 6.205,-12.552 22.148,-38.593 23.892,-50.442 14.782,-1.46 38.531,-6.689 53.81,-9.384 z"
     id="path21" />
  <path
     fill="#f2fbfb"
     d="m 891.454,956.883 c 9.418,10.403 26.394,21.821 37.559,31.214 3.476,2.925 7.729,4.854 10.983,8.206 -10.913,12.107 -23.074,29.597 -33.303,42.987 -7.617,9.97 -20.305,23.9 -26.718,33.43 -9.519,-5.49 -20.9,-9.97 -29.657,-15.31 -7.624,-2.99 -11.643,-3.77 -19.618,-5.45 9.991,-19.14 27.041,-42.13 38.639,-61.327 6.242,-10.331 17.603,-22.68 22.115,-33.75 z"
     id="path22" />
  <path
     fill="#9144c1"
     d="m 482.205,374.032 c 5.884,-1.201 12.41,-2.698 18.14,-4.446 39.97,-12.194 82.486,-18.052 122.561,-29.4 7.631,40.693 22.807,91.614 32.754,133.074 14.118,51.655 26.223,105.709 39.263,157.995 5.802,23.059 11.473,46.151 17.011,69.275 2.617,10.615 7.577,28.365 9.259,38.399 4.174,18.737 7.795,34.894 10.73,53.77 -6.329,0.939 -17.549,2.233 -23.205,3.974 -5.972,22.012 -25.057,53.133 -36.052,74.494 -26.912,-13.51 -34.161,-11.707 -58.627,4.488 -8.511,-11.327 -17.148,-15.301 -24.955,-24.332 -6.23,-6.804 -7.181,-14.326 -8.544,-23.245 -7.033,-46.047 -20.212,-90.771 -28.632,-136.56 -1.18,-6.417 -2.901,-15.293 -4.975,-21.214 -4.364,-17.092 -7.747,-35.603 -11.662,-52.963 -11.229,-47.845 -21.605,-95.886 -31.123,-144.1 -5.363,-26.136 -14.379,-74.673 -21.943,-99.209 z"
     id="path23" />
  <path
     fill="#b468cd"
     d="m 482.205,374.032 c 5.884,-1.201 12.41,-2.698 18.14,-4.446 39.97,-12.194 82.486,-18.052 122.561,-29.4 7.631,40.693 22.807,91.614 32.754,133.074 -2.117,1.724 -4.695,2.035 -4.584,1.884 -5.806,7.88 -6.982,17.894 -11.769,26.49 -22.788,40.918 -41.514,83.878 -65.543,124.165 -7.412,12.427 -17.063,34.537 -26.831,44.505 -4.364,-17.092 -7.747,-35.603 -11.662,-52.963 -11.229,-47.845 -21.605,-95.886 -31.123,-144.1 -5.363,-26.136 -14.379,-74.673 -21.943,-99.209 z"
     id="path24" />
  <path
     fill="#b468cd"
     d="m 721.193,738.929 c 4.174,18.737 7.795,34.894 10.73,53.77 -6.329,0.939 -17.549,2.233 -23.205,3.974 -5.972,22.012 -25.057,53.133 -36.052,74.494 -26.912,-13.51 -34.161,-11.707 -58.627,4.488 -8.511,-11.327 -17.148,-15.301 -24.955,-24.332 2.308,-3.136 6.731,-6.592 9.928,-9.014 35.703,-27.049 66.02,-60.125 101.6,-87.154 6.989,-5.309 13.783,-10.771 20.581,-16.226 z"
     id="path25" />
  <path
     fill="#c788d6"
     d="m 638.112,703.608 c 8.957,2.625 14.216,7.047 19.719,14.247 -3.126,12.685 -6.191,21.945 -17.566,29.133 -18.377,0.547 -23.049,-10.008 -16.111,-25.835 3.156,-7.197 8.495,-12.06 13.958,-17.545 z"
     id="path26" />
  <path
     fill="#a294a2"
     d="m 508.305,819.789 c 1.054,-1.707 1.762,-1.854 3.547,-2.737 13.148,28.257 50.767,45.558 71.013,67.396 4.057,3.575 9.853,8.996 14.121,11.998 -9.709,14.219 -11.397,19.27 -17.898,35.016 9.235,10.535 50.177,73.868 59.346,78.608 l 2.343,-0.08 1.657,2.62 c -1.311,4.24 -4.89,3.71 -6.164,8.38 -2.579,9.43 -1.331,19.29 -4.393,28.6 -7.691,20.81 -12.234,44.3 -20.153,64.75 -3.316,13.2 -9.248,35.32 -10.145,48.18 -4.625,0.62 -30.229,-11.02 -36.709,-13.64 -13.932,-4.77 -34.477,-13.2 -48.474,-18.49 -17.891,-6.76 -63.826,-19.86 -78.048,-28.74 -8.824,-3.81 -19.569,-7.56 -28.689,-10.99 -12.038,1.29 -44.139,-4.49 -46.959,-17.16 -2.409,-0.31 -4.279,-0.59 -6.652,-1.1 -1.822,-9.04 -4.116,-17.59 -7.842,-26.04 -8.066,-15.89 -15.431,-41.86 -24.933,-61.189 3.847,-2.795 21.201,-19.839 24.909,-23.698 15.768,-16.411 55.303,-49.408 65.729,-67.657 22.436,10.835 41.334,26.771 63.887,36.451 3.663,1.946 6.637,4.124 10.601,3.865 3.368,-1.371 4.284,-3.056 6.59,-5.896 0.226,-11.282 -1.092,-21.615 -2.73,-32.724 -1.298,-1.575 -2.792,-3.387 -4.483,-5.438 4.457,-20.637 15.1,-42.377 21.808,-62.564 0.49,-1.473 -0.958,-6.555 -1.279,-7.721 z"
     id="path27" />
  <path
     fill="#d1d0d0"
     d="m 508.305,819.789 c 1.054,-1.707 1.762,-1.854 3.547,-2.737 13.148,28.257 50.767,45.558 71.013,67.396 4.057,3.575 9.853,8.996 14.121,11.998 -9.709,14.219 -11.397,19.27 -17.898,35.016 9.235,10.535 50.177,73.868 59.346,78.608 l 2.343,-0.08 1.657,2.62 c -1.311,4.24 -4.89,3.71 -6.164,8.38 -2.579,9.43 -1.331,19.29 -4.393,28.6 -26.911,-1.69 -106.834,-57.209 -118.665,-56.256 l -4.033,-4.632 c -2.602,0.467 -3.108,2.057 -5.178,4.551 -4.886,-4.328 -39.266,-7.525 -47.293,-7.999 -2.396,-0.142 -7.655,1.067 -11.006,1.131 l -0.645,0.006 c 12.943,-13.187 18.687,-24.585 26.23,-41.244 2.514,-5.551 5.264,-8.22 6.511,-14.88 3.663,1.946 6.637,4.124 10.601,3.865 3.368,-1.371 4.284,-3.056 6.59,-5.896 0.226,-11.282 -1.092,-21.615 -2.73,-32.724 -1.298,-1.575 -2.792,-3.387 -4.483,-5.438 4.457,-20.637 15.1,-42.377 21.808,-62.564 0.49,-1.473 -0.958,-6.555 -1.279,-7.721 z"
     id="path28" />
  <path
     fill="#b4aeb3"
     d="m 508.305,819.789 c 1.054,-1.707 1.762,-1.854 3.547,-2.737 13.148,28.257 50.767,45.558 71.013,67.396 -4.574,3.993 -29.562,14.328 -37.154,18.233 -14.419,7.416 -35.492,20.725 -50.722,25.555 0.226,-11.282 -1.092,-21.615 -2.73,-32.724 -1.298,-1.575 -2.792,-3.387 -4.483,-5.438 4.457,-20.637 15.1,-42.377 21.808,-62.564 0.49,-1.473 -0.958,-6.555 -1.279,-7.721 z"
     id="path29" />
  <path
     fill="#f2fbfb"
     d="m 323.273,985.171 c 3.847,-2.795 21.201,-19.839 24.909,-23.698 15.768,-16.411 55.303,-49.408 65.729,-67.657 22.436,10.835 41.334,26.771 63.887,36.451 -1.247,6.66 -3.997,9.329 -6.511,14.88 -7.543,16.659 -13.287,28.057 -26.23,41.244 -12.592,6.683 -29.318,17.929 -42.156,25.439 -14.997,8.78 -41.891,23.84 -54.695,34.53 -8.066,-15.89 -15.431,-41.86 -24.933,-61.189 z"
     id="path30" />
  <path
     fill="#d1d0d0"
     d="m 445.057,986.391 0.645,-0.006 c 3.351,-0.064 8.61,-1.273 11.006,-1.131 8.027,0.474 42.407,3.671 47.293,7.999 -15.803,23.657 -30.885,48.487 -45.949,72.687 -4.06,6.52 -16.195,34.15 -19.704,35.71 -8.824,-3.81 -19.569,-7.56 -28.689,-10.99 -12.038,1.29 -44.139,-4.49 -46.959,-17.16 -2.409,-0.31 -4.279,-0.59 -6.652,-1.1 -1.822,-9.04 -4.116,-17.59 -7.842,-26.04 12.804,-10.69 39.698,-25.75 54.695,-34.53 12.838,-7.51 29.564,-18.756 42.156,-25.439 z"
     id="path31" />
  <path
     fill="#1b1d55"
     d="m 362.7,1073.5 c 13.631,4.71 34.536,13.62 46.959,17.16 -12.038,1.29 -44.139,-4.49 -46.959,-17.16 z"
     id="path32" />
  <path
     fill="#f2fbfb"
     d="m 513.212,993.334 c 11.831,-0.953 91.754,54.566 118.665,56.256 -7.691,20.81 -12.234,44.3 -20.153,64.75 -3.316,13.2 -9.248,35.32 -10.145,48.18 -4.625,0.62 -30.229,-11.02 -36.709,-13.64 0.942,-11.16 -12.668,-40.15 -12.019,-49.88 0.576,-1.6 1.428,-3.68 0.682,-5.41 -10.71,-24.8 -20.334,-50.04 -29.661,-75.39 -3.04,-8.26 -6.319,-17.24 -10.66,-24.866 z"
     id="path33" />
  <path
     fill="#d1d0d0"
     d="m 564.87,1148.88 c 0.942,-11.16 -12.668,-40.15 -12.019,-49.88 2.518,0.82 2.54,-0.15 3.823,-0.34 8.409,-1.28 47.557,11.69 54.297,15.28 l 0.753,0.4 c -3.316,13.2 -9.248,35.32 -10.145,48.18 -4.625,0.62 -30.229,-11.02 -36.709,-13.64 z"
     id="path34" />
  <path
     fill="#b468cd"
     d="m 925.953,512.694 c 26.154,13.734 52.543,27.016 79.157,39.84 10.32,4.995 27.44,13.859 37.78,17.071 -10.35,19.187 -18.53,40.698 -27.55,60.545 -27.225,59.932 -50.756,125.177 -78.57,184.474 -1.167,2.824 -3.808,7.585 -5.294,10.463 -4.578,-14.043 -29.011,-47.428 -38.359,-61.598 -19.168,2.317 -38.053,5.802 -57.144,7.946 2.222,-7.968 6.616,-19.547 9.355,-27.717 l 20.024,-59.379 c 20.161,-59.383 38.272,-112.973 60.601,-171.645 z"
     id="path35" />
  <path
     fill="#e8c6ed"
     d="m 948.031,615.927 c 28.913,1.475 33.788,26.598 8.362,41.029 -14.51,0.325 -26.749,-11.026 -23.395,-26.212 1.67,-7.562 8.713,-11.34 15.033,-14.817 z"
     id="path36" />
  <path
     fill="#9144c1"
     d="m 705.962,263.63 0.941,0.431 c 1.962,2.319 2.508,14.987 3.018,18.72 7.007,51.323 23.151,101.371 34.676,151.624 13.828,60.297 26.563,120.918 41.477,180.897 -7.992,32.194 -20.236,64.064 -29.507,95.945 -2.244,7.718 -4.096,17.278 -7.705,24.283 l -1.038,-0.006 c -2.143,-3.232 -3.318,-10.222 -4.225,-14.275 -4.364,-15.949 -8.18,-31.463 -11.583,-47.644 -17.883,-85.025 -41.855,-168.579 -61.707,-253.121 -6.684,-28.46 -12.95,-58.155 -22.371,-85.771 6.302,-8.804 18.164,-22.23 25.219,-31.285 9.189,-11.794 22.185,-30.459 32.805,-39.798 z"
     id="path37" />
  <path
     fill="#e8c6ed"
     d="m 697.64,436.177 c 11.231,-0.52 16.087,-1.6 17.351,11.123 -7.712,-1.323 -16.467,-1.926 -17.351,-11.123 z"
     id="path38" />
  <path
     fill="#f2fbfb"
     d="m 946.426,902.107 c 12.095,-13.44 77.254,-103.954 79.564,-104.947 l 2.79,1.965 c 7.25,8.674 22.44,22.435 31.16,30.409 17.54,16.032 38.57,37.313 57.03,51.811 -4.45,8.499 -7.86,15.285 -10.76,24.532 -6.3,17.752 -13.68,34.952 -20.1,52.714 -5.36,14.835 -9.9,34.622 -16.4,48.569 4.79,12.45 -1.55,14.49 -2.93,25.21 -1.14,3.55 -2.98,3.82 -6.58,4.75 l -1.62,1.73 c -1.51,4.2 -2.69,7.39 -4.57,11.43 -9.54,-12.88 -32.16,-21.5 -47.2,-32.62 -11.736,-7.16 -49.542,-26.538 -62.283,-29.229 l -1.079,-0.672 c -0.128,-0.466 -0.65,-2.186 -0.635,-3.13 0.434,-26.291 -0.668,-53.433 1.219,-79.579 0.983,-1.208 1.781,-2.189 2.394,-2.943 z"
     id="path39" />
  <path
     fill="#b4aeb3"
     d="m 1031.54,931.738 0.14,-1.59 c 3.1,-6.173 37.78,-13.783 45.97,-16.576 6.23,-2.126 23.07,-9.239 28.56,-7.695 -6.3,17.752 -13.68,34.952 -20.1,52.714 -5.36,14.835 -9.9,34.622 -16.4,48.569 4.79,12.45 -1.55,14.49 -2.93,25.21 -1.14,3.55 -2.98,3.82 -6.58,4.75 l -1.62,1.73 c -1.51,4.2 -2.69,7.39 -4.57,11.43 -9.54,-12.88 -32.16,-21.5 -47.2,-32.62 5.09,-16.9 9.33,-33.712 14.19,-50.63 3.52,-12.282 7.79,-22.577 10.54,-35.292 z"
     id="path40" />
  <path
     fill="#1b1d55"
     d="m 1062.13,1027.84 c 2.13,-6.76 5.05,-14 7.58,-20.68 4.79,12.45 -1.55,14.49 -2.93,25.21 -1.14,3.55 -2.98,3.82 -6.58,4.75 l -1.62,1.73 c 1.17,-3.05 2.52,-7.77 3.55,-11.01 z"
     id="path41" />
  <path
     fill="#d1d0d0"
     d="m 1028.78,799.125 c 7.25,8.674 22.44,22.435 31.16,30.409 17.54,16.032 38.57,37.313 57.03,51.811 -4.45,8.499 -7.86,15.285 -10.76,24.532 -5.49,-1.544 -22.33,5.569 -28.56,7.695 -8.19,2.793 -42.87,10.403 -45.97,16.576 l -0.14,1.59 c -0.93,-1.367 -1.89,-2.547 -2.93,-3.826 -13.1,-16.122 -2.13,-105.389 0.17,-128.787 z"
     id="path42" />
  <path
     fill="url(#Gradient4)"
     d="m 536.382,785.069 c -12.498,-18.897 -28.371,-36.672 -41.795,-55.023 -10.032,-13.714 -18.402,-20.619 -21.798,-37.902 -3.696,-18.813 -7.726,-37.995 -11.951,-56.702 -16.98,-78.699 -36.468,-156.836 -58.436,-234.292 -5.745,-20.746 -6.17,-39.077 -16.969,-57.997 26.626,8.818 46.626,22.926 70.159,31.957 0.336,6.677 3.778,19.521 5.309,26.611 4.606,20.734 9.076,41.497 13.41,62.289 14.994,75.035 31.708,149.36 48.884,223.911 6.793,29.482 11.115,60.021 17.786,89.812 -0.141,3.028 -0.131,4.912 -0.832,7.904 l -1.441,0.588 z"
     id="path43"
     style="fill:url(#Gradient4)" />
  <path
     fill="#9144c1"
     d="m 343.236,672.884 c 9.652,-15.04 23.184,-32.232 31.515,-46.137 26.126,35.979 52.596,71.707 79.406,107.18 12.73,16.677 54.055,66.404 57.695,83.125 -1.785,0.883 -2.493,1.03 -3.547,2.737 -1.488,-5.814 -13.282,-9.104 -18.251,-10.686 -3.986,-0.051 -8.171,-0.528 -11.715,0.98 -2.411,4.344 -10.779,40.21 -12.627,47.917 -3.621,7.126 -4.858,16.232 -6.238,24.122 -12.819,-7.101 -32.604,-24.385 -47.131,-28.858 -6.709,-12.589 -17.773,-27.93 -25.244,-40.956 -15.412,-26.869 -31.2,-53.772 -46.003,-80.993 -3.583,-6.588 -14.453,-25.924 -15.861,-32.258 0.536,-3.388 2.174,-4.943 4.295,-7.581 3.54,-3.711 7.193,-12.594 13.706,-18.592 z"
     id="path44" />
  <path
     fill="url(#Gradient3)"
     d="m 343.236,672.884 c 9.652,-15.04 23.184,-32.232 31.515,-46.137 26.126,35.979 52.596,71.707 79.406,107.18 12.73,16.677 54.055,66.404 57.695,83.125 -1.785,0.883 -2.493,1.03 -3.547,2.737 -1.488,-5.814 -13.282,-9.104 -18.251,-10.686 -8.548,-14.667 -22.307,-26.397 -34.22,-38.129 -26.089,-26.053 -53.42,-50.832 -81.898,-74.251 -8.839,-7.293 -23.918,-16.055 -30.7,-23.839 z"
     id="path45"
     style="fill:url(#Gradient3)" />
  <path
     fill="#c788d6"
     d="m 329.53,691.476 c 15.923,16.618 133.635,153.52 136.182,166.524 -3.621,7.126 -4.858,16.232 -6.238,24.122 -12.819,-7.101 -32.604,-24.385 -47.131,-28.858 -6.709,-12.589 -17.773,-27.93 -25.244,-40.956 -15.412,-26.869 -31.2,-53.772 -46.003,-80.993 -3.583,-6.588 -14.453,-25.924 -15.861,-32.258 0.536,-3.388 2.174,-4.943 4.295,-7.581 z"
     id="path46" />
  <path
     fill="#9144c1"
     d="m 1071.13,574.032 c 26.5,-8.773 54.57,-20.58 81.87,-27.101 -19.55,43.572 -39.5,87.578 -54.02,132.971 -4.9,15.295 -13.4,30.87 -18.84,46.087 -6.65,14.961 -15.76,40.741 -23.28,54.221 l 1.16,-0.469 1.05,0.777 -2.76,2.892 c 1.05,1.594 1.7,2.356 2.21,4.229 -4.57,-3.68 -15.3,-13.874 -16.44,-19.341 -6.61,-5.671 -12.45,-9.741 -19.58,-14.756 -21.62,16.667 -45.518,56.075 -63.595,77.78 4.633,-13.447 11.765,-26.415 16.912,-39.832 23.694,-61.758 53.313,-121.371 78.363,-182.657 4.84,-11.843 12.31,-23.831 16.95,-34.801 z"
     id="path47" />
  <path
     fill="#1b1d55"
     d="m 1042.08,768.298 c 4.86,3.956 9.82,8.123 14.78,11.912 l 1.16,-0.469 1.05,0.777 -2.76,2.892 c 1.05,1.594 1.7,2.356 2.21,4.229 -4.57,-3.68 -15.3,-13.874 -16.44,-19.341 z"
     id="path48" />
  <path
     fill="#c788d6"
     d="m 1056.73,650.538 c 8.96,2.35 14.85,13.683 12.35,22.513 -2.58,9.083 -5.93,12.493 -13.73,17.336 -23.23,-12.968 -15.65,-27.319 1.38,-39.849 z"
     id="path49" />
  <path
     fill="#a294a2"
     d="m 944.527,988.431 c 12.741,2.691 50.547,22.069 62.283,29.229 15.04,11.12 37.66,19.74 47.2,32.62 -1.06,4.66 -1.95,7.36 -3.57,11.87 -9.13,5.48 -17.48,10.01 -27.24,14.34 -30.085,13.34 -59.644,28.39 -89.333,42.65 l -58.06,28.28 c -8.065,3.92 -21.334,10.83 -29.412,13.96 2.851,-22.32 23.593,-68.17 33.58,-88.66 6.413,-9.53 19.101,-23.46 26.718,-33.43 10.229,-13.39 22.39,-30.88 33.303,-42.987 2.852,-3.186 3.346,-3.658 4.531,-7.872 z"
     id="path50" />
  <path
     fill="#b4aeb3"
     d="m 930.681,1047.04 c 1.036,-0.06 2.074,-0.09 3.111,-0.08 24.67,0.15 34.696,11.69 13.753,30.68 -26.718,11.46 -37.011,-14.45 -16.864,-30.6 z"
     id="path51" />
  <path
     fill="#e8c6ed"
     d="m 500.588,119.237 c 3.702,2.131 10.104,15.208 12.746,19.715 9.667,16.391 19.057,32.943 28.165,49.651 15.086,27.261 30.969,54.375 46.801,81.225 6.057,10.273 18.278,34.334 24.95,42.342 -12.202,1.812 -27.332,6.338 -39.46,9.668 -30.583,7.568 -61.268,14.72 -92.047,21.453 6.289,-51.34 8.299,-106.352 12.951,-157.967 1.821,-20.21 2.71,-46.701 5.894,-66.087 z"
     id="path52" />
  <path
     fill="#b468cd"
     d="m 1073.13,342.598 c 1.19,0.429 0.8,0.322 1.77,1.374 -6.62,65.952 -16.72,131.086 -23.53,196.982 -6.22,-1.803 -18.53,-7.503 -24.84,-10.296 -16.55,-7.287 -32.967,-14.852 -49.257,-22.692 -13.127,-6.466 -23.923,-12.374 -36.655,-19.54 15.149,-14.481 32.659,-34.981 47.011,-50.915 z"
     id="path53" />
  <path
     fill="#e8c6ed"
     d="m 874.365,439.544 c 5.066,2.621 21.875,45.89 26.202,54.774 -14.476,29.43 -27.152,77.832 -38.11,109.869 -13.103,38.311 -26.06,77.606 -40.31,115.569 -3.723,9.921 -15.773,49.87 -19.448,56.567 -3.265,2.009 -7.989,1.687 -11.945,1.806 -7.79,0.073 -13.55,2.752 -20.491,5.84 10.434,-26.509 15.413,-50.54 23.803,-76.792 12.795,-40.033 24.955,-78.667 36.552,-119.1 14.075,-49.073 32.388,-98.744 43.747,-148.533 z"
     id="path54" />
  <path
     fill="#b468cd"
     d="m 1098.12,374.37 -2.07,-1.714 c 0.26,-2.975 0.24,-3.093 2.15,-5.255 l 1.82,-0.284 c 3.74,3.183 19.88,28.757 21.7,34.006 6.76,19.532 14,39.33 20.84,58.797 3.97,11.264 25.84,54.059 21,63.024 -3.83,1.453 -8.07,-0.279 -8.83,-4.363 l 0.18,-0.692 c -23.04,4.998 -53.03,15.802 -76.13,23.24 0.37,-14.341 2.84,-32.811 4.48,-47.202 2.52,-23.344 5.35,-46.653 8.49,-69.922 2.03,-14.848 3.64,-35.819 6.37,-49.635 z"
     id="path55" />
  <path
     fill="#1b1d55"
     d="m 1098.12,374.37 -2.07,-1.714 c 0.26,-2.975 0.24,-3.093 2.15,-5.255 l 1.82,-0.284 c 3.74,3.183 19.88,28.757 21.7,34.006 6.76,19.532 14,39.33 20.84,58.797 3.97,11.264 25.84,54.059 21,63.024 -3.83,1.453 -8.07,-0.279 -8.83,-4.363 l 0.18,-0.692 c -6.49,-13.201 -9.7,-28.534 -15.69,-41.274 -14.53,-30.87 -23.61,-72.494 -38.9,-101.749 z"
     id="path56" />
  <path
     fill="url(#Gradient2)"
     d="m 543.146,131.404 c 9.095,1.792 129.992,93.373 148.128,105.82 -13.124,8.215 -20.324,17.625 -29.744,29.577 -8.76,10.39 -17.637,20.682 -26.628,30.873 -29.13,-54.882 -64.477,-110.008 -91.756,-166.27 z"
     id="path57"
     style="fill:url(#Gradient2)" />
  <path
     fill="#c788d6"
     d="m 248.23,709.907 c 17.616,0.385 32.404,3.566 52.261,3.125 3.557,9.455 10.07,19.108 15.169,28.023 l 24.023,42.361 c 16.834,29.228 32.677,60.049 50.523,88.554 -5.628,3.366 -7.538,4.739 -12.451,9.074 -4.538,5.296 -6.834,8.754 -10.583,14.49 -28.02,-43.52 -55.293,-88.814 -83.205,-132.507 -11.523,-18.038 -23.856,-35.349 -35.737,-53.12 z"
     id="path58" />
  <path
     fill="#e8c6ed"
     d="m 467.356,148.517 c 4.158,5.373 -10.499,176.874 -12.811,195.617 -16.483,-8.511 -29.196,-13.853 -46.285,-20.665 -6.235,-2.598 -14.171,-5.169 -20.68,-7.451 8.461,-14.99 16.093,-34.194 23.884,-50.27 19.014,-38.893 37.646,-77.972 55.892,-117.231 z"
     id="path59" />
  <path
     fill="url(#Gradient1)"
     d="m 1029.21,347.864 2.12,0.585 -0.02,1.676 c -9.8,10.487 -21.03,20.013 -31.653,31.605 l -43.291,46.878 c -9.508,10.373 -24.842,27.826 -35.633,36.28 l -4.864,-13.161 c -5.609,-13.544 -12.512,-31.694 -20.152,-43.783 17.405,-6.473 34.671,-16.491 51.975,-23.357 28.172,-11.178 54.378,-23.25 81.518,-36.723 z"
     id="path60"
     style="fill:url(#Gradient1)" />
  <path
     fill="#c788d6"
     d="m 251.859,568.593 c 2.635,0.567 6.261,2.799 8.933,3.79 29.689,11.007 60.348,28.656 89.78,38.955 -8.55,9.708 -18.152,26.031 -25.761,37.379 -5.646,8.504 -11.429,16.916 -17.349,25.231 -6.888,-15.044 -14.98,-26.516 -22.424,-40.593 -10.847,-20.514 -23.727,-43.688 -33.179,-64.762 z"
     id="path61" />
  <path
     fill="#e8c6ed"
     d="m 227.997,586.685 c 3.245,2.066 40.997,75.718 46.165,82.005 1.129,1.373 7.717,13.282 8.629,15.686 -9.696,-2.274 -37.505,-3.528 -47.406,-2.656 -0.339,-31.869 -0.775,-63.765 -7.388,-95.035 z"
     id="path62" />
  <path
     fill="#b468cd"
     d="m 540.981,777.733 c 2.253,8.211 3.74,16.101 5.386,24.447 -3.134,-5.392 -6.715,-11.928 -9.985,-17.111 l 2.326,1.156 1.441,-0.588 c 0.701,-2.992 0.691,-4.876 0.832,-7.904 z"
     id="path63" />
</svg>
