<?xml version="1.0" encoding="UTF-8" standalone="no"?>
<!-- Created with Inkscape (http://www.inkscape.org/) -->

<svg
   width="21.888069mm"
   height="24.045336mm"
   viewBox="0 0 21.888069 24.045336"
   version="1.1"
   id="svg1"
   xml:space="preserve"
   xmlns="http://www.w3.org/2000/svg"
   xmlns:svg="http://www.w3.org/2000/svg"><defs
     id="defs1" /><g
     id="layer1"
     style="display:inline"
     transform="translate(-92.22616,-134.9584)"><path
       style="display:inline;fill:#bb7d7e;fill-opacity:1;stroke-width:0.1"
       d="m 99.297076,143.20052 -5.589828,6.36619 4.386463,4.42528 4.386459,-7.2202 -0.93164,-3.29955 z"
       id="path21" /><path
       style="display:inline;fill:#55bbc5;fill-opacity:1;stroke-width:0.1"
       d="m 96.269253,146.34479 0.931638,2.05737 -1.203365,4.07591 -2.756096,-2.79491 z"
       id="path20" /><path
       style="display:inline;fill:#f5b66e;fill-opacity:1;stroke-width:0.1"
       d="m 99.934955,155.70408 3.603395,2.68417 3.82403,-2.05909 c -2.36486,-0.17676 -5.35423,-0.531 -7.427425,-0.62508 z"
       id="path18" /><path
       style="display:inline;fill:#e47668;fill-opacity:1;stroke-width:0.1"
       d="m 99.033329,154.90985 0.829939,0.82994 7.216862,0.73973 1.76813,-1.31708 -9.616467,-0.4691 z"
       id="path19" /><path
       style="display:inline;fill:#f9c976;fill-opacity:1;stroke-width:0.1"
       d="m 92.392127,142.41354 0.842875,7.16445 5.738035,-5.96497 z"
       id="path16" /><path
       style="display:inline;fill:#697894;fill-opacity:1;stroke-width:0.1"
       d="m 95.37461,142.8674 -1.685753,6.5485 5.511107,-5.80288 z"
       id="path17" /><path
       style="fill:#6ce4d6;fill-opacity:1;stroke-width:0.1"
       d="m 100.36702,151.03681 -1.912674,3.69569 10.989804,0.58353 -0.58353,-2.62588 z"
       id="path15" /><path
       style="display:inline;fill:#7fa79d;fill-opacity:1;stroke-width:0.1"
       d="m 101.46925,149.02688 -2.139609,3.89019 c 0,0 5.575949,-0.61594 9.790319,1.71817 0.58353,0.12968 -0.3566,-2.23686 -0.3566,-2.23686 z"
       id="path14" /><path
       style="display:inline;fill:#84708a;fill-opacity:1;stroke-width:0.1"
       d="m 102.70114,146.79002 -1.52366,2.98248 8.03974,4.4413 -1.45882,-6.3864 z"
       id="path13" /><path
       style="display:inline;fill:#c18834;fill-opacity:1;stroke-width:0.1"
       d="m 109.22463,147.16844 -1.35168,0.95169 1.68271,6.71706 3.76541,-5.19986 z"
       id="path12" /><path
       style="fill:#c3e4ec;fill-opacity:1;stroke-width:0.1"
       d="m 105.19942,135.45482 -1.05683,2.4458 4.43867,4.55945 2.65716,-0.93605 z"
       id="path5" /><path
       style="display:inline;fill:#f28b4a;fill-opacity:1;stroke-width:0.1"
       d="m 113.47436,149.71481 -4.41524,-2.40845 1.11721,-0.63446 z"
       id="path11" /><path
       style="display:inline;fill:#f6c077;fill-opacity:1;stroke-width:0.1"
       d="m 112.5468,143.15096 -2.45692,3.62149 3.29712,2.83862 z"
       id="path10" /><path
       style="fill:#f28b4a;fill-opacity:1;stroke-width:0.1"
       d="m 104.39844,147.05299 3.55773,0.91812 2.67787,-1.75974 0.22953,-1.56846 z"
       id="path9" /><path
       style="display:inline;fill:#f28b4a;fill-opacity:1;stroke-width:0.1"
       d="m 96.795226,138.09315 -3.818146,4.18964 6.64564,0.92874 z"
       id="path4" /><path
       style="fill:#ded0c8;fill-opacity:1;stroke-width:0.1"
       d="m 97.414387,137.70101 -0.577881,1.09384 2.641745,4.54051 h 0.990649 v -6.48054 z"
       id="path3" /><path
       style="fill:#d7677e;fill-opacity:1;stroke-width:0.1"
       d="m 99.478245,137.2676 -0.37149,2.39409 0.88746,3.77687 1.382795,0.16511 3.67368,-7.82205 z"
       id="path2" /><path
       style="display:inline;fill:#6f86c9;fill-opacity:1;stroke-width:0.1"
       d="m 105.02796,136.38508 -3.35053,6.4422 0.0695,1.19623 9.24019,-2.77233 -3.16469,-0.79542 z"
       id="path6" /><path
       style="display:inline;fill:#79a18e;fill-opacity:1;stroke-width:0.1"
       d="m 111.02706,141.0711 -9.33026,2.89871 0.93604,2.83834 2.02307,0.39253 6.94485,-2.50618 1.29839,-2.02307 z"
       id="path7" /><path
       style="display:inline;fill:#c2d4c2;fill-opacity:1;stroke-width:0.1"
       d="m 110.84589,140.76915 -0.33215,5.4049 2.32502,-3.20067 z"
       id="path8" /><path
       style="fill:#cd9c9e;fill-opacity:1;stroke-width:0.1"
       d="m 100.92744,143.82161 -0.62109,2.87255 0.11646,2.17382 -2.794919,5.27928 0.737547,0.34937 4.347642,-7.60838 -1.20336,-3.37719 z"
       id="path22" /><path
       style="display:inline;fill:#000000"
       d="m 102.84391,158.8319 -0.2808,-0.1712 -1.09689,-0.80226 -1.09689,-0.80226 -0.31565,-0.20771 -0.315638,-0.2077 -0.931333,-0.68346 -0.931334,-0.68346 -0.677333,-0.74897 -0.677333,-0.74897 -1.77394,-1.82985 -1.773939,-1.82985 -0.06293,-0.11244 -0.06293,-0.11245 -0.170023,-1.9843 -0.170023,-1.98429 -0.14038,-1.79818 -0.14038,-1.79818 0.0454,-0.1183 0.0454,-0.1183 1.128208,-0.97061 1.128207,-0.97062 0.423334,-0.46081 0.423333,-0.46082 0.189637,-0.22891 0.189636,-0.22891 0.457988,-0.61929 0.457987,-0.61929 0.918709,-0.2755 0.91871,-0.27549 1.608667,-0.49748 1.60866,-0.49748 0.762,-0.22657 0.762,-0.22656 0.889,-0.28647 0.889,-0.28646 0.18693,-5e-5 0.18692,-5e-5 0.70208,0.64954 0.70207,0.64954 1.524,1.48087 1.524,1.48088 1.70485,1.6868 1.70484,1.6868 0.0418,0.47962 0.0418,0.47961 0.30885,2.37067 0.30885,2.37067 0.0526,0.7403 0.0526,0.7403 -0.36852,0.5297 -0.36851,0.5297 -1.05796,1.48166 -1.05795,1.48167 -0.69826,0.93977 -0.69827,0.93977 -0.23741,0.15726 -0.2374,0.15727 -2.98472,1.50646 -2.98471,1.50647 -0.14795,-3.2e-4 -0.14795,-3.1e-4 z m 2.89968,-2.0295 2.3227,-1.143 0.006,-0.0521 0.006,-0.0521 -2.2225,-0.0592 -2.2225,-0.0592 -2.02731,-0.0768 -2.027309,-0.0768 -0.02325,0.0233 -0.02325,0.0233 0.469289,0.33421 0.46929,0.33422 0.26894,0.19313 0.26893,0.19312 0.84667,0.61539 0.84667,0.61538 0.254,0.18485 0.254,0.18486 0.10575,-0.0197 0.10576,-0.0197 z m 3.35012,-2.01422 v -0.0669 l -0.13249,-0.50463 -0.13249,-0.50462 -0.0692,-0.33866 -0.0692,-0.33867 -0.518,-2.28456 -0.518,-2.28456 -7e-5,-0.12844 -8e-5,-0.12844 -1.20642,-0.23515 -1.20642,-0.23515 -1.05834,-0.20215 -1.05833,-0.20216 -0.1187,-0.0284 -0.1187,-0.0284 -0.67244,1.18533 -0.67244,1.18533 -0.26022,0.46567 -0.26021,0.46567 -1.086481,1.9267 -1.086477,1.92671 1.91e-4,0.063 1.9e-4,0.063 0.95231,0.0319 0.952307,0.0319 3.51367,0.10368 3.51366,0.10369 0.65617,0.0126 0.65617,0.0126 z m 1.27739,-1.378 0.47306,-0.62945 0.58998,-0.80433 0.58999,-0.80434 0.54461,-0.762 0.54461,-0.762 0.0566,-0.0424 0.0566,-0.0424 -0.93775,-1.01593 -0.93775,-1.01592 -0.37535,-0.40788 -0.37536,-0.40787 -0.11627,0.0446 -0.11627,0.0446 -1.01607,0.65959 -1.01608,0.65959 -0.002,0.0906 -0.002,0.0906 0.63905,2.8727 0.63905,2.8727 0.0486,0.16281 0.0486,0.1628 0.0955,-0.16835 0.0955,-0.16835 z m -11.000051,-1.34912 1.226231,-2.159 0.70492,-1.27 0.70491,-1.27 0.14076,-0.254 0.14076,-0.254 -0.508,-1.48499 -0.50801,-1.48499 -0.92141,-0.12497 -0.921408,-0.12496 -1.454547,1.55856 -1.454546,1.55856 -0.858906,0.9404 -0.858905,0.94039 -0.495761,0.53418 -0.495762,0.53417 1.79599,1.83649 1.795989,1.8365 0.36301,0.43426 0.363011,0.43426 0.0077,-0.0109 0.0077,-0.0109 z m -2.444086,-6.72968 1.571938,-1.69201 -0.02222,-0.0222 -0.02222,-0.0222 -1.474881,-0.2134 -1.474881,-0.21341 -1.058334,-0.12687 -1.058333,-0.12687 -0.118441,-0.0432 -0.118442,-0.0432 0.05644,0.65835 0.05644,0.65835 0.167533,2.11667 0.167532,2.11666 3.06e-4,0.2368 3.05e-4,0.23679 0.877658,-0.91413 0.877658,-0.91412 z m 15.977627,1.48948 -0.16448,-1.32146 -0.0984,-0.78317 -0.0985,-0.78317 -0.0526,0.003 -0.0526,0.003 -0.69654,1.10564 -0.69654,1.10563 1.03521,1.13346 1.0352,1.13347 0.0302,0.002 z m -4.21871,0.17747 0.87349,-0.57539 0.40101,-0.23183 0.401,-0.23182 0.64728,-0.99195 0.64729,-0.99194 0.21379,-0.33867 0.21379,-0.33867 0.13492,-0.21166 0.13492,-0.21167 -1.60888,-1.56633 -1.60889,-1.56634 -1.8504,-1.80415 -1.85041,-1.80415 -0.012,0.0262 -0.012,0.0262 -0.11054,0.19688 -0.11053,0.19689 -0.87568,1.87745 -0.87568,1.87745 -0.44243,0.93133 -0.44243,0.93134 -0.33057,0.7155 -0.33058,0.71551 0.13872,0.34283 0.13872,0.34282 0.37757,1.10067 0.37756,1.10067 0.0594,0.0611 0.0594,0.0611 0.76016,0.12172 0.76015,0.12172 1.10067,0.2137 1.10066,0.2137 0.508,0.12326 0.508,0.12325 0.0155,0.009 0.0155,0.009 z m -7.05417,-4.54693 0.33759,-0.67734 0.39645,-0.84666 0.39646,-0.84667 0.59255,-1.27 0.59255,-1.27 0.2872,-0.66367 0.2872,-0.66367 v -0.0801 -0.0802 l -0.14817,0.077 -0.14816,0.0769 -2.14482,0.65239 -2.144823,0.6524 -1.030181,0.2983 -1.030181,0.29831 -0.211666,0.0447 -0.211667,0.0447 -0.159702,0.13711 -0.159701,0.13711 -0.573455,0.762 -0.573454,0.762 -0.663844,0.64949 -0.663844,0.64949 -0.460606,0.38768 -0.460606,0.38768 h -0.06856 -0.06856 v 0.0682 0.0682 l 0.9525,0.10462 0.9525,0.10461 1.820333,0.25326 1.820333,0.25326 0.931334,0.1272 0.93133,0.1272 0.0847,0.0288 0.0847,0.0288 0.0584,-0.0529 0.0584,-0.0529 z"
       id="path1" /><path
       style="fill:#d1b4b6;fill-opacity:1;stroke-width:0.1"
       d="m 99.374713,143.66634 0.931637,3.72655 0.854,-3.6101 z"
       id="path23" /><path
       style="display:inline;fill:#121756;fill-opacity:1;stroke-width:0.0758958"
       d="m 388.06094,599.75708 c -0.93878,-0.6335 -3.06232,-2.14996 -4.71898,-3.36991 -1.65666,-1.21995 -3.59948,-2.61166 -4.31737,-3.09269 -0.71788,-0.48103 -3.06733,-2.16365 -5.221,-3.73915 -3.43956,-2.51619 -4.18406,-3.16557 -6.1221,-5.33994 -1.2135,-1.36146 -3.60896,-3.92121 -5.32324,-5.68832 -1.71429,-1.7671 -4.87815,-5.02613 -7.0308,-7.24227 -2.15266,-2.21614 -4.01855,-4.24932 -4.14642,-4.51817 -0.12788,-0.26886 -0.47088,-3.38046 -0.76224,-6.91467 -1.33116,-16.14754 -1.72709,-21.52979 -1.62489,-22.08886 0.0883,-0.4827 0.95239,-1.32075 4.34827,-4.21696 4.76073,-4.06024 7.31725,-6.73285 10.37259,-10.84361 l 2.08951,-2.81131 1.53936,-0.46434 c 6.52197,-1.96728 21.48216,-6.55202 25.37744,-7.77722 2.61874,-0.82369 5.02957,-1.49762 5.3574,-1.49762 0.49133,0 1.17188,0.53738 3.87339,3.05852 3.88473,3.62536 8.62042,8.23354 18.86248,18.35459 l 7.55283,7.4636 0.14354,1.67647 c 0.0789,0.92205 0.63913,5.47173 1.24486,10.11039 0.60573,4.63866 1.22798,9.96107 1.38278,11.82758 l 0.28145,3.39366 -1.14087,1.62653 c -3.11934,4.44722 -11.00247,15.40127 -12.83099,17.82936 -1.31224,1.74254 -2.40711,2.98068 -2.991,3.3824 -1.4614,1.00548 -23.47234,12.04245 -24.00703,12.03788 -0.26516,-0.002 -1.25019,-0.52244 -2.18897,-1.15594 z m 11.63583,-7.00582 c 4.86561,-2.39279 8.84656,-4.46189 8.84656,-4.598 0,-0.27419 -2.16244,-0.40537 -9.73918,-0.59081 -2.42977,-0.0595 -8.4106,-0.25359 -13.29072,-0.43138 -4.88013,-0.17779 -9.02501,-0.26491 -9.21085,-0.19359 -0.24884,0.0955 0.58138,0.78685 3.14993,2.6231 1.91831,1.3714 5.02401,3.62285 6.90157,5.00323 2.29174,1.68489 3.5916,2.51441 3.95493,2.52388 0.32053,0.008 4.14823,-1.75975 9.38776,-4.33643 z m 12.66191,-7.81153 c 0,-0.28336 -0.22623,-1.39031 -0.50272,-2.45989 -0.79901,-3.09083 -4.91909,-21.5304 -4.91909,-22.01554 0,-0.39571 -0.18379,-0.47255 -1.85747,-0.77658 -1.02161,-0.18557 -5.10522,-0.96785 -9.07469,-1.73838 -3.96947,-0.77054 -7.2317,-1.38057 -7.2494,-1.35564 -0.0495,0.0697 -5.77018,10.19621 -10.71323,18.96408 -2.44161,4.33088 -4.4393,8.04748 -4.4393,8.2591 0,0.35339 0.21706,0.39518 2.66071,0.51229 2.20695,0.10576 25.17147,0.79208 32.98267,0.98572 1.21488,0.0301 2.4122,0.0739 2.6607,0.0974 0.36223,0.0342 0.45182,-0.0595 0.45182,-0.47256 z m 6.58945,-7.31629 c 2.07418,-2.81633 4.79768,-6.56641 6.05224,-8.33352 1.25455,-1.76711 2.45717,-3.40968 2.67247,-3.65017 l 0.39146,-0.43724 -4.8909,-5.3181 c -3.32294,-3.61319 -5.02764,-5.32384 -5.31744,-5.33598 -0.62594,-0.0262 -8.39457,5.05735 -8.46819,5.54136 -0.0634,0.4168 4.86353,22.80699 5.10441,23.19676 0.0992,0.16057 0.22737,0.11262 0.41421,-0.15501 0.14878,-0.21313 1.96756,-2.69177 4.04174,-5.5081 z m -43.28628,-2.81131 c 4.90079,-8.63481 10.73047,-19.0827 10.91273,-19.55768 0.14289,-0.37237 -3.47153,-11.03271 -3.91322,-11.54164 -0.27219,-0.31361 -0.85139,-0.41129 -3.65535,-0.61644 l -3.33191,-0.24377 -1.20351,1.2706 c -5.55507,5.86473 -19.80526,21.3494 -19.89962,21.62352 -0.0305,0.0887 2.88909,3.16886 6.48802,6.84491 3.59893,3.67604 7.27368,7.53737 8.16612,8.58071 0.89243,1.04335 1.69286,1.82381 1.77875,1.73435 0.0859,-0.0895 2.18198,-3.73201 4.65799,-8.09456 z M 356.94516,559.4495 c 1.59626,-1.65712 5.33365,-5.63311 8.3053,-8.83554 2.97165,-3.20242 5.81265,-6.24973 6.31334,-6.77179 0.50068,-0.52207 0.85381,-1.00574 0.78472,-1.07482 -0.17017,-0.17017 -9.66098,-1.55647 -15.11157,-2.2073 -2.42977,-0.29013 -4.56996,-0.60891 -4.75598,-0.70839 -0.54694,-0.29251 -0.60704,-0.22132 -0.48302,0.57215 0.13421,0.85863 1.72487,20.80781 1.72487,21.63238 0,0.29707 0.072,0.51002 0.16002,0.4732 0.088,-0.0368 1.46605,-1.42276 3.06232,-3.07989 z m 70.43676,-0.85259 c -0.19909,-1.29772 -0.6816,-4.93485 -1.07223,-8.08251 -0.81801,-6.59148 -0.82414,-6.62666 -1.15491,-6.62666 -0.23541,0 -5.46662,8.11515 -5.46662,8.48033 0,0.25946 7.59791,8.57168 7.84322,8.5806 0.14067,0.005 0.0901,-0.79012 -0.14946,-2.35176 z m -16.38635,-3.01212 c 1.80087,-1.18727 3.95124,-2.55008 4.77861,-3.02845 1.21616,-0.70317 1.64332,-1.08779 2.23017,-2.00808 0.39924,-0.62607 2.09524,-3.25948 3.76889,-5.85203 l 3.04299,-4.71372 -1.55999,-1.53025 c -6.57728,-6.45187 -24.62987,-23.99327 -24.73589,-24.03545 -0.18968,-0.0755 -0.54554,0.66882 -11.30634,23.64751 l -2.20988,4.71898 0.34983,0.90363 c 0.19241,0.497 1.07072,2.982 1.9518,5.52222 0.88108,2.54021 1.70512,4.72601 1.8312,4.85731 0.12607,0.1313 1.94614,0.52192 4.04458,0.86804 3.81052,0.6285 11.91329,2.235 13.0525,2.58786 0.33133,0.10263 0.8015,0.19436 1.04482,0.20385 0.24687,0.01 1.88957,-0.93682 3.71671,-2.14142 z m -27.46273,-15.7132 c 1.05198,-1.99715 8.84881,-18.63739 10.36372,-22.11859 1.06734,-2.45268 1.40913,-3.5848 1.08228,-3.5848 -0.0607,0 -0.35582,0.12692 -0.6558,0.28205 -0.89986,0.46533 -22.50595,6.98271 -25.00074,7.54136 -0.53194,0.11911 -1.23853,0.4172 -1.57021,0.66243 -0.33169,0.24522 -1.58911,1.7642 -2.79428,3.3755 -1.52951,2.04495 -3.05682,3.77383 -5.05766,5.72514 -2.9502,2.87719 -5.54606,5.10479 -5.94867,5.10479 -0.12577,0 -0.22866,0.16275 -0.22866,0.36168 0,0.31976 0.38981,0.40305 3.36353,0.71865 1.84994,0.19634 4.58344,0.52724 6.07443,0.73534 1.491,0.20809 6.31652,0.8773 10.72337,1.48712 4.40686,0.60982 8.06218,1.15847 8.12292,1.21922 0.32451,0.32451 0.81539,-0.16126 1.52577,-1.50989 z"
       id="path26"
       transform="scale(0.26458333)" /><path
       style="fill:#c4733b;fill-opacity:1;stroke-width:0.0758958"
       d="m 368.08057,539.16325 c -3.31333,-0.47472 -7.85409,-1.06749 -10.09059,-1.31726 -2.23649,-0.24977 -4.06635,-0.52873 -4.06635,-0.61992 0,-0.0912 0.0976,-0.16579 0.21687,-0.16579 0.314,0 3.31736,-2.59013 6.13786,-5.29335 1.4143,-1.35549 3.13151,-3.26553 4.08735,-4.54634 0.9066,-1.21483 1.67411,-2.20878 1.70558,-2.20878 0.0559,0 8.5704,14.57526 8.70287,14.89767 0.0926,0.22526 0.0674,0.22246 -6.69359,-0.74623 z"
       id="path27"
       transform="scale(0.26458333)" /></g></svg>
