<svg version="1.1" xmlns="http://www.w3.org/2000/svg" style="display: block;" viewBox="0 0 1320 1344" width="3.3rem" height="3.36rem" preserveAspectRatio="none">
<defs>
	<linearGradient id="Gradient1" gradientUnits="userSpaceOnUse" x1="660.411" y1="463.669" x2="390.936" y2="610.882">
		<stop class="stop0" offset="0" stop-opacity="1" stop-color="rgb(210,130,76)"/>
		<stop class="stop1" offset="1" stop-opacity="1" stop-color="rgb(243,170,116)"/>
	</linearGradient>
</defs>
<path transform="translate(0,0)" fill="rgb(242,251,252)" d="M 0 0 L 1320 0 L 1320 1344 L 0 1344 L 0 0 z"/>
<path transform="translate(0,0)" fill="rgb(27,30,98)" d="M 1176.34 728.369 C 1179.14 735.245 1181.28 756.621 1181.97 764.98 C 1185.27 804.782 1194.36 855.767 1179.34 893.675 C 1166.21 926.843 1139.62 956.624 1122.57 987.995 C 1114.42 1002.1 1087.66 1045.67 1079.05 1055.35 C 1020.21 1117.53 919.644 1115.17 841.363 1135.84 C 764.069 1156.26 694.15 1209.34 613.159 1204.15 C 586.457 1202.44 555.754 1191.74 530.378 1183.59 L 456.64 1159.66 C 405.355 1143.01 338.87 1130.14 304.583 1086.2 C 276.61 1050.35 257.667 1004.18 237.295 963.534 C 223.823 936.654 209.988 910.08 198.692 882.185 C 183.366 845.836 187.923 816.673 198.989 780.49 C 215.887 725.239 235.314 668.933 251.025 613.535 C 268.986 549.146 286.405 484.606 303.28 419.924 C 311.234 389.424 317.64 352.191 329.496 323.695 C 348.481 278.062 393.93 240.267 431.705 209.688 C 472.856 176.377 516.454 134.189 564.389 111.375 C 586.084 101.049 635.067 98.9089 657.789 107.884 C 730.463 141.215 810.219 158.987 883.107 189.156 C 967.808 224.214 1005.72 323.74 1036.85 402.965 C 1042.34 415.683 1078.08 498.787 1078.61 505.509 C 1082.14 512.99 1084.6 519.07 1087.56 526.807 C 1097.17 546.444 1105.79 568.051 1115.05 588.037 C 1118.22 594.884 1128.92 617.564 1130.73 623.767 C 1135.06 630.823 1140.84 645.172 1145.34 653.547 C 1150.34 662.13 1158.8 678.941 1162.03 688.404 L 1162.03 688.826 C 1165.07 693.382 1167.2 698.97 1169.36 704.046 C 1172.21 711.63 1175.89 720.319 1176.34 728.369 z"/>
<path transform="translate(0,0)" fill="rgb(45,42,121)" d="M 1087.56 526.807 C 1097.17 546.444 1105.79 568.051 1115.05 588.037 C 1118.22 594.884 1128.92 617.564 1130.73 623.767 C 1118.77 620.148 1099.97 566.775 1095.37 553.079 L 1095.68 553.395 C 1093.84 547.471 1087.15 530.701 1087.56 526.807 z"/>
<path transform="translate(0,0)" fill="rgb(45,42,121)" d="M 1036.85 402.965 C 1042.34 415.683 1078.08 498.787 1078.61 505.509 L 1076.66 505.289 C 1071.91 492.987 1066.95 480.772 1061.76 468.65 C 1059.1 462.421 1055.44 455.918 1053.61 449.489 C 1052.58 453.265 1060.35 474.181 1062.08 479.301 C 1057.17 469.755 1054.1 459.488 1050.32 449.452 C 1044.63 434.33 1034.3 419.661 1036.85 402.965 z"/>
<path transform="translate(0,0)" fill="rgb(45,42,121)" d="M 1145.34 653.547 C 1150.34 662.13 1158.8 678.941 1162.03 688.404 C 1150.91 687.941 1143.01 663.407 1145.34 653.547 z"/>
<path transform="translate(0,0)" fill="rgb(45,42,121)" d="M 1169.36 704.046 C 1172.21 711.63 1175.89 720.319 1176.34 728.369 C 1171.53 722.532 1170.04 722.167 1167.42 714.952 C 1168.91 710.184 1169.01 709.025 1169.36 704.046 z"/>
<path transform="translate(0,0)" fill="rgb(45,42,121)" d="M 607.285 115.412 C 615.395 113.983 637.922 115.795 645.551 118.701 C 687.98 134.864 731.006 151.546 774.217 165.566 C 815.138 178.843 859.134 192.244 897.206 212.129 C 933.473 232.815 959.179 267.426 978.144 303.21 C 996.798 338.409 1007.33 370.647 1023.81 406.423 C 1034.31 429.232 1042.65 452.534 1053.05 475.465 C 1061.45 493.994 1066 516.911 1075.13 535.575 C 1093.82 572.383 1109.27 610.171 1126.22 647.817 C 1134.3 665.746 1157.33 700.359 1160.96 718.426 C 1169.73 765.392 1175.15 815.45 1173.71 863.27 C 1173.06 885.105 1159.29 899.451 1149.75 916.918 C 1137.7 940.237 1122.15 960.783 1108.42 982.859 C 1086.83 1017.58 1070.12 1060.63 1027.94 1075.58 C 989.537 1089.19 946.323 1098.48 906.454 1107.49 C 885.087 1112.31 860.895 1113.59 839.412 1118.85 C 805.001 1129.35 775.817 1144.97 740.753 1155.74 C 708.239 1165.59 679.158 1185.56 644.714 1189.36 C 630.329 1190.95 615.264 1191.01 601.043 1188.16 C 575.571 1183.05 550.777 1171.73 526.023 1163.81 C 506.168 1157.46 486.154 1151.06 466.163 1145.18 C 429.413 1134.37 367.804 1119.86 338.428 1096.28 C 328.525 1088.33 318.067 1078.84 310.771 1068.42 C 288.898 1037.2 208.688 878.728 205.16 845.132 C 204.033 834.4 204.279 823.559 206.871 813.049 C 213.906 784.526 224.45 756.239 232.87 728.024 L 288.093 539.854 C 299.292 500.429 306.352 459.047 317.219 419.547 C 325.053 391.068 335.295 361.788 343.317 333.151 C 348.43 314.896 362.784 294.551 373.793 279.344 C 381.94 268.741 393.746 260.72 403.014 251.467 C 426.212 228.309 450.583 209.51 476.254 189.419 C 503.977 167.723 528.897 143.853 560.533 127.19 C 573.957 120.12 592.414 116.829 607.285 115.412 z"/>
<path transform="translate(0,0)" fill="rgb(27,30,98)" d="M 609.846 128.296 C 614.908 127.824 629.769 126.45 633.988 128.368 C 663.715 141.885 692.965 155.07 724.109 165.45 C 731.276 167.838 740.954 173.552 747.279 175.263 C 788.181 186.322 828.988 198.914 868.348 214.7 C 897.078 226.161 931.338 260.429 948.264 285.884 C 977.226 329.211 992.97 377.306 1010.94 425.546 C 1021.85 454.816 1036.75 483.343 1046.72 513.869 C 1054.26 533.963 1070.16 558.441 1076.35 578.325 C 1092.29 629.5 1133.54 686.067 1145.9 736.478 C 1154.12 770.038 1153.24 826.509 1153.98 860.752 C 1154.76 897.283 1113.46 941.14 1094.9 968.847 C 1068.29 1011.75 1061.16 1046.26 1009.41 1066.17 C 989.825 1073.7 964.214 1079.55 943.125 1082.57 C 919.785 1085.91 899.35 1091.3 876.45 1096.72 C 865.064 1099.47 843.304 1099.3 833.471 1103.06 C 801.389 1115.32 769.729 1128.85 737.734 1141.63 C 689.143 1162.55 643.604 1180.35 590.503 1168.88 C 563.986 1163.99 539.141 1156.07 514.518 1145.17 C 510.915 1144.08 507.21 1143.01 503.547 1142.14 C 465.474 1133.13 429.816 1116.53 392.29 1105.77 C 345.338 1092.18 313.418 1058.52 297.791 1012.78 C 289.366 988.116 274.5 964.239 262.42 941.215 C 250.6 919.133 240.454 896.194 232.069 872.592 C 213.534 821.778 222.59 823.137 237.301 772.441 C 259.737 695.125 286.826 618.704 305.406 540.394 C 312.542 510.316 318.682 480.652 329.647 451.643 C 330.77 447.562 332.768 443.209 333.582 439.072 C 341.973 393.053 347.35 349.699 372.665 309.794 C 398.209 269.529 421.14 253.638 459.112 226.917 C 471.46 218.228 485.587 202.111 498.323 192.302 C 520.692 175.072 542.629 155.78 566.756 140.922 C 578.788 133.348 596.058 130.654 609.846 128.296 z"/>
<path transform="translate(0,0)" fill="rgb(90,211,234)" d="M 689.525 684.334 C 700.155 687.046 715.093 695.255 725.881 692.797 C 748.622 687.615 767.206 664.5 769.836 641.482 C 770.579 634.975 765.819 619.57 768.997 615.145 C 774.947 611.682 783.994 612.552 790.939 612.706 C 794.877 619.148 798.134 631.873 802.929 637.701 C 813.727 650.829 818.766 648.612 826.772 665.124 C 833.952 678.65 833.99 700.749 846.867 710.386 C 863.484 722.821 884.268 720.991 898.167 738.579 C 907.405 750.269 905.137 758.868 908.66 771.595 C 914.774 793.68 939.354 814.607 958.396 826.254 C 965.829 829.424 974.376 832.249 982.98 831.393 C 1011.2 828.583 1038.63 805.454 1056.47 842.509 C 1064.71 859.605 1054.32 884.54 1076.49 895.783 C 1092.36 903.834 1120.25 889.238 1127.23 892.978 C 1123.4 906.2 1092.96 944.699 1083.65 960.506 C 1069.02 985.369 1046.25 1032.35 1020.37 1044.5 C 975.23 1065.71 921.125 1071.75 872.421 1081.77 C 828.319 1088.99 809.45 1096.29 768.114 1113.21 L 712.952 1135.18 C 657.796 1157.77 633.569 1168.57 574.08 1149.27 C 547.51 1140.65 511.289 1127.24 484.839 1121.35 C 495.494 1101.64 504.775 1070.23 513.521 1048.82 C 516.235 1042.17 519.363 1030.03 522.408 1024.21 L 523.587 1017.87 C 520.587 1013.87 509.319 1015.65 504.689 1014.63 L 503.099 1011.07 C 496.121 1023.87 493.952 1037.71 488.899 1046.98 C 469.168 1033.86 451.687 996.246 437.25 977.228 C 434.664 973.821 424.625 961.43 424.344 958.508 C 431.331 960.659 438.289 962.905 445.215 965.247 C 461.04 961.345 498.124 937.011 513.922 926.947 C 519.276 923.536 528.706 912.641 533.657 907.908 L 535.406 907.592 C 537.612 901.714 537.755 889.49 538.119 882.598 C 539.384 870.516 536.227 843.12 538.361 833.446 C 543.109 811.923 554.263 807.855 555.265 781.737 C 564.499 781.063 581.533 776 590.208 773.254 C 616.966 764.786 628.298 755.716 639.9 730.48 C 648.408 711.972 669.383 690.71 689.525 684.334 z"/>
<path transform="translate(0,0)" fill="rgb(55,183,215)" d="M 958.396 826.254 C 965.829 829.424 974.376 832.249 982.98 831.393 C 1011.2 828.583 1038.63 805.454 1056.47 842.509 C 1064.71 859.605 1054.32 884.54 1076.49 895.783 C 1092.36 903.834 1120.25 889.238 1127.23 892.978 C 1123.4 906.2 1092.96 944.699 1083.65 960.506 C 1069.02 985.369 1046.25 1032.35 1020.37 1044.5 C 975.23 1065.71 921.125 1071.75 872.421 1081.77 C 828.319 1088.99 809.45 1096.29 768.114 1113.21 L 712.952 1135.18 C 657.796 1157.77 633.569 1168.57 574.08 1149.27 C 547.51 1140.65 511.289 1127.24 484.839 1121.35 C 495.494 1101.64 504.775 1070.23 513.521 1048.82 C 516.235 1042.17 519.363 1030.03 522.408 1024.21 C 528.14 1029.9 549.57 1029.66 557.337 1030.45 C 587.605 1033.54 609.729 1029.07 633.844 1009.93 C 640.298 1004.8 650.961 998.834 658.855 995.742 C 679.399 1008.17 694.505 994.774 710.708 982.717 C 723.491 986.479 736.227 1002.72 744.798 983.64 C 773.638 969.685 907.512 909.741 922.164 892.036 C 938.119 872.757 944.644 847.132 958.396 826.254 z"/>
<path transform="translate(0,0)" fill="rgb(45,42,121)" d="M 538.119 882.598 C 538.531 886.178 537.968 888.538 540.841 891.104 C 544.564 894.427 556.019 900.102 558.589 903.702 C 570.618 920.55 575.688 934.773 590.09 950.617 C 609.21 946.818 624.414 943.417 641.626 954.422 C 649.352 959.361 669.3 985.37 678.108 979.858 C 703.679 963.855 719.442 953.135 744.798 983.64 C 736.227 1002.72 723.491 986.479 710.708 982.717 C 694.505 994.774 679.399 1008.17 658.855 995.742 C 650.961 998.834 640.298 1004.8 633.844 1009.93 C 609.729 1029.07 587.605 1033.54 557.337 1030.45 C 549.57 1029.66 528.14 1029.9 522.408 1024.21 L 523.587 1017.87 C 520.587 1013.87 509.319 1015.65 504.689 1014.63 L 503.099 1011.07 C 496.121 1023.87 493.952 1037.71 488.899 1046.98 C 469.168 1033.86 451.687 996.246 437.25 977.228 C 434.664 973.821 424.625 961.43 424.344 958.508 C 431.331 960.659 438.289 962.905 445.215 965.247 C 461.04 961.345 498.124 937.011 513.922 926.947 C 519.276 923.536 528.706 912.641 533.657 907.908 L 535.406 907.592 C 537.612 901.714 537.755 889.49 538.119 882.598 z"/>
<path transform="translate(0,0)" fill="rgb(242,174,119)" d="M 533.657 907.908 C 558.615 925.362 551.86 939.587 570.863 959.704 C 562.233 1005.75 528.718 976.877 503.099 1011.07 C 496.121 1023.87 493.952 1037.71 488.899 1046.98 C 469.168 1033.86 451.687 996.246 437.25 977.228 C 434.664 973.821 424.625 961.43 424.344 958.508 C 431.331 960.659 438.289 962.905 445.215 965.247 C 461.04 961.345 498.124 937.011 513.922 926.947 C 519.276 923.536 528.706 912.641 533.657 907.908 z"/>
<path transform="translate(0,0)" fill="rgb(90,211,234)" d="M 587.463 970.984 C 599.566 971.161 611.058 969.828 623.083 968.611 C 637.04 975.464 646.177 986.25 658.855 995.742 C 650.961 998.834 640.298 1004.8 633.844 1009.93 C 609.729 1029.07 587.605 1033.54 557.337 1030.45 C 549.57 1029.66 528.14 1029.9 522.408 1024.21 L 523.587 1017.87 C 535.604 1005.15 576.122 1020.91 587.463 970.984 z"/>
<path transform="translate(0,0)" fill="rgb(90,211,234)" d="M 707.355 178.013 C 761.66 198.5 825.197 209.339 876.864 237.283 C 908.888 254.603 940.769 296.471 955.46 329.061 C 976.034 375.397 995.165 422.361 1012.83 469.883 C 1019.25 486.693 1026.63 503.399 1032.66 520.297 L 1025.61 526.594 C 1018.49 526.994 1011.38 527.534 1004.28 528.215 C 978.583 533.172 981.922 545.788 970.735 564.832 C 966.417 572.183 948.903 590.078 942.188 596.07 C 929.965 593.039 918.317 582.494 905.15 587.312 C 892.956 592.206 866.631 598.852 856.906 606.149 C 843.453 616.242 832.3 650.26 817.359 615.108 C 807.76 592.525 785.579 586.799 763.648 596.173 C 735.775 608.086 732.383 588.503 708.29 580.799 C 689.795 574.833 662.33 586.58 646.713 571.201 C 642.676 567.225 638.026 552.634 634.006 547.385 C 622.466 532.342 614.464 518.496 605.738 501.893 C 609.46 494.272 605.211 476.76 604.202 467.256 C 614.415 454.197 632.846 447.248 632.346 426.88 C 632.033 414.131 625.942 408.861 617.552 400.66 C 627.558 388.835 632.942 383.48 636.814 368.284 C 654.222 361.926 668.175 351.652 650.092 335.145 C 662.254 322.497 665.185 308.215 658.114 292.014 C 652.747 279.715 650.646 276.291 654.179 263.249 C 656.401 258.404 659.157 255.094 662.875 251.296 C 676.518 237.363 679.845 231.246 681.259 211.5 C 698.626 199.916 698.12 197.711 707.355 178.013 z"/>
<path transform="translate(0,0)" fill="rgb(148,230,241)" d="M 707.355 178.013 C 761.66 198.5 825.197 209.339 876.864 237.283 C 908.888 254.603 940.769 296.471 955.46 329.061 C 976.034 375.397 995.165 422.361 1012.83 469.883 C 1019.25 486.693 1026.63 503.399 1032.66 520.297 L 1025.61 526.594 C 1018.49 526.994 1011.38 527.534 1004.28 528.215 C 999.924 518.047 989.264 503.427 983.466 493.14 C 937.725 412.064 869.28 341.223 783.275 303.445 C 745.701 286.941 710.054 276.951 670.817 265.904 C 665.117 264.299 659.4 264.997 654.179 263.249 C 656.401 258.404 659.157 255.094 662.875 251.296 C 676.518 237.363 679.845 231.246 681.259 211.5 C 698.626 199.916 698.12 197.711 707.355 178.013 z"/>
<path transform="translate(0,0)" fill="rgb(90,211,234)" d="M 434.196 504.939 C 489.621 515.546 445.165 566.245 516.272 556.906 C 524.076 562.326 551.152 579.316 553.091 588.114 C 554.105 592.712 547.147 599.956 549.771 614.462 C 552.261 630.343 579.285 658.238 566.27 675.166 C 552.307 693.329 520.596 688.117 510.522 714.656 C 498.826 745.468 529.509 755.434 534.641 780.966 C 536.778 791.598 521.979 810.86 519.293 821.265 C 514.692 839.301 516.938 876.714 520.936 894.413 C 516.028 899.054 504.033 912.448 499.995 915.069 C 481.604 927.004 467.34 928.904 451.031 945.496 C 430.088 938.313 421.943 936.274 403.422 949.895 C 384.837 970.271 394.62 980.793 364.729 999.071 C 337.305 996.711 334.031 993.346 310.024 1009.16 C 308.228 1004.67 305.681 998.822 304.52 994.253 C 302.016 988.257 297.681 980.829 294.806 974.59 C 284.797 952.871 273.314 931.522 263.571 909.729 C 257.285 897.747 233.251 844.189 234.511 834.518 C 237.425 812.159 254.254 763.842 261.338 741.327 L 286.876 658.185 C 293.407 636.776 298.654 614.092 304.864 592.501 C 311.469 569.536 318.461 546.423 324.018 523.19 C 331.946 526.228 339.078 529.844 346.721 533.298 C 360.357 539.46 381.345 532.794 396.492 529.631 C 409.953 525.063 420.149 511.63 434.196 504.939 z"/>
<path transform="translate(0,0)" fill="rgb(148,230,241)" d="M 324.018 523.19 C 331.946 526.228 339.078 529.844 346.721 533.298 C 360.357 539.46 381.345 532.794 396.492 529.631 C 394.151 556.386 388.808 582.516 382.266 608.399 C 379.796 618.172 374.071 637.043 368.699 644.958 C 347.178 676.665 323.699 701.366 312.764 739.671 C 309.549 750.932 303.549 763.438 301.639 775.504 C 296.287 797.502 298.954 819.983 298.644 842.376 C 297.702 884.262 300.151 925.804 303.963 967.487 C 304.52 973.579 306.365 982.986 305.783 988.793 L 304.878 988.978 C 296.166 979.049 272.063 915.097 263.571 909.729 C 257.285 897.747 233.251 844.189 234.511 834.518 C 237.425 812.159 254.254 763.842 261.338 741.327 L 286.876 658.185 C 293.407 636.776 298.654 614.092 304.864 592.501 C 311.469 569.536 318.461 546.423 324.018 523.19 z"/>
<path transform="translate(0,0)" fill="rgb(55,183,215)" d="M 265.064 749.96 C 269.286 749.839 285.796 751.772 289.451 753.399 L 289.669 755.69 L 288.135 756.801 C 277.088 762.364 272.958 757.865 265.064 749.96 z"/>
<path transform="translate(0,0)" fill="rgb(55,183,215)" d="M 301.038 886.988 C 323.218 898.989 390.283 932.761 403.422 949.895 C 384.837 970.271 394.62 980.793 364.729 999.071 C 337.305 996.711 334.031 993.346 310.024 1009.16 C 308.228 1004.67 305.681 998.822 304.52 994.253 C 307.161 991.939 307.789 991.052 307.582 987.372 C 306.705 971.757 304.967 956.159 303.622 940.568 C 302.253 922.736 301.391 904.869 301.038 886.988 z"/>
<path transform="translate(0,0)" fill="rgb(148,230,241)" d="M 368.837 354.79 C 373.224 341.678 379.142 325.529 387.463 314.311 C 411.614 281.749 449.456 252.476 480.966 227.219 C 500.826 211.329 520.568 195.29 540.19 179.105 C 548.266 193.939 552.741 193.879 562.612 206.065 C 568.023 214.431 568.7 226.944 573.822 235.366 C 583.057 250.551 613.89 272.337 584.885 286.621 C 572.754 303.898 577.194 306.465 575.433 326.866 C 574.996 331.926 568.481 340.759 570.528 349.088 C 572.408 356.739 577.022 359.373 578.983 366.256 C 580.254 370.716 579.201 382.349 580.367 385.993 C 585.081 400.724 603.513 415.129 613.941 427.445 C 592.753 448.752 582.611 455.585 585.732 487.363 C 572.042 484.982 557.452 484.579 543.579 484.316 C 518.111 483.832 513.148 456.034 494.267 444.365 C 489.652 441.672 455.167 428.796 450.756 428.768 C 431.08 428.601 422.416 439.024 409.671 417.557 C 396.833 395.934 393.995 365.565 368.837 354.79 z"/>
<path transform="translate(0,0)" fill="rgb(90,211,234)" d="M 450.756 428.768 C 456.439 400.073 474.812 369.218 493.901 347.309 C 511.44 327.18 558.443 288.228 584.885 286.621 C 572.754 303.898 577.194 306.465 575.433 326.866 C 574.996 331.926 568.481 340.759 570.528 349.088 C 572.408 356.739 577.022 359.373 578.983 366.256 C 580.254 370.716 579.201 382.349 580.367 385.993 C 585.081 400.724 603.513 415.129 613.941 427.445 C 592.753 448.752 582.611 455.585 585.732 487.363 C 572.042 484.982 557.452 484.579 543.579 484.316 C 518.111 483.832 513.148 456.034 494.267 444.365 C 489.652 441.672 455.167 428.796 450.756 428.768 z"/>
<path transform="translate(0,0)" fill="url(#Gradient1)" d="M 339.614 465.248 C 336.257 455.961 346.649 449.59 340.419 441.538 C 340.044 441.054 343.396 432.695 341.618 428.485 C 339.781 431.912 337.439 444.077 336.749 448.07 L 335.775 448.52 C 333.868 439.946 345.145 406.68 348.901 396.837 C 349.331 395.71 352.205 395.583 353.455 395.345 L 354.365 392.968 L 354.314 394.01 C 357.463 383.318 360.747 373.538 364.186 362.971 L 364.977 362.995 C 365.563 365.605 363.689 371.263 362.523 373.735 C 365.833 378.161 366.348 382.375 368.923 386.243 C 383.24 407.755 392.7 443.654 420.759 450.247 C 430.156 452.434 437.103 449.539 445.533 447.441 C 461.239 457.053 473.691 457.43 489.381 465.297 C 495.472 468.351 502.11 485.251 507.926 489.885 C 530.744 513.158 558.03 502.606 587.754 506.729 C 592.08 515.609 595.463 524.804 599.955 533.354 C 604.335 541.691 611.201 550.653 616.154 558.891 C 627.353 577.517 630.833 589.973 652.332 598.228 C 669.859 604.958 688.408 596.677 702.756 600.094 C 726.97 605.861 718.677 623.333 750.762 619.914 C 752.406 639.848 751.84 666.769 723.359 672.986 C 717.798 674.201 707.707 668.723 702.196 667.384 C 671.954 657.493 644.679 687.605 629.748 710.404 C 622.243 721.863 617.769 735.983 606.506 744.983 C 589.488 758.233 572.025 751.196 553.009 765.555 C 546.328 756.554 530.477 738.125 528.391 726.367 C 527.868 723.425 533.23 717.217 535.84 715.784 C 557.854 702.499 583.489 701.06 588.521 670.949 C 593.14 643.312 577.727 632.653 569.861 610.111 C 566.829 601.423 575.619 579.011 565.061 568.644 C 554.404 554.643 531.047 540.287 513.704 536.925 C 508.188 535.855 495.669 537.617 490.025 538.314 C 486.29 527.696 483.027 516.775 476.295 507.513 C 465.673 492.899 444.168 480.465 425.877 487.39 C 412.992 492.269 402.523 504.926 389.561 510.086 C 377.771 514.924 368.701 512.805 356.268 516.396 C 345.725 511.413 340.213 507.336 328.659 505.397 C 331.399 496.747 338.902 473.328 339.614 465.248 z"/>
<path transform="translate(0,0)" fill="rgb(45,42,121)" d="M 339.614 465.248 C 336.257 455.961 346.649 449.59 340.419 441.538 C 340.044 441.054 343.396 432.695 341.618 428.485 C 339.781 431.912 337.439 444.077 336.749 448.07 L 335.775 448.52 C 333.868 439.946 345.145 406.68 348.901 396.837 C 349.331 395.71 352.205 395.583 353.455 395.345 L 354.365 392.968 L 354.314 394.01 C 357.463 383.318 360.747 373.538 364.186 362.971 L 364.977 362.995 C 365.563 365.605 363.689 371.263 362.523 373.735 C 359.314 379.413 357.734 392.714 355.832 399.889 C 350.555 419.793 346.149 446.236 339.614 465.248 z"/>
<path transform="translate(0,0)" fill="rgb(55,183,215)" d="M 1000.03 548.152 C 1018.68 547.978 1028.01 550.381 1043.02 539.547 C 1048.42 554.842 1057.46 571.953 1063.75 588.018 C 1072.8 607.302 1081.16 626.861 1090.23 646.014 C 1104.19 675.495 1131.63 724.041 1134.71 755.861 C 1098.84 755.972 1083.84 732.722 1053.21 718.247 C 1044.32 714.043 1034.45 714.79 1025.45 712.067 C 1020.13 703.679 1017.78 697.462 1014.64 688.009 C 1004.36 662.3 996.472 658.334 980.49 637.193 C 974.563 629.352 966.973 612.31 962.516 602.684 C 966.551 598.835 972.177 594.61 976.538 590.603 C 989.895 578.33 994.432 564.717 1000.03 548.152 z"/>
<path transform="translate(0,0)" fill="rgb(90,211,234)" d="M 1000.03 548.152 C 1018.68 547.978 1028.01 550.381 1043.02 539.547 C 1048.42 554.842 1057.46 571.953 1063.75 588.018 C 1063.22 588.266 1059.45 589.954 1059.09 590.154 C 1043.75 598.732 1034.55 633.225 1027.16 647.868 C 1022.05 657.994 1017.52 683.941 1014.64 688.009 C 1004.36 662.3 996.472 658.334 980.49 637.193 C 974.563 629.352 966.973 612.31 962.516 602.684 C 966.551 598.835 972.177 594.61 976.538 590.603 C 989.895 578.33 994.432 564.717 1000.03 548.152 z"/>
<path transform="translate(0,0)" fill="rgb(217,136,88)" d="M 905.99 605.313 C 922.121 609.716 929.581 618.458 947.492 617.208 C 951.89 628.415 957.213 641.843 964.417 651.49 C 977.088 668.461 994.489 675.826 997.203 698.789 C 991.14 706.077 985.501 757.941 979.267 772.018 C 975.1 781.428 972.268 797.65 966.651 809.322 C 955.722 805.556 928.202 780.087 927.043 768.222 C 924.317 740.305 916.721 718.95 888.698 707.574 C 879.074 703.667 867.419 700.567 858.606 694.935 L 857.518 694.232 C 850.099 676.585 854.703 665.66 839.937 651.786 C 854.128 641.748 856.309 637.052 867.854 625.277 C 874.611 618.384 896.332 608.967 905.99 605.313 z"/>
<path transform="translate(0,0)" fill="rgb(182,102,54)" d="M 966.651 809.322 C 972.268 797.65 975.1 781.428 979.267 772.018 C 985.501 757.941 991.14 706.077 997.203 698.789 C 1013.72 738.136 1026.73 724.331 1054.18 739.976 C 1087.38 758.894 1093.2 775.626 1136.86 776.499 C 1136.82 805 1140.71 838.305 1141.15 868.991 C 1130.94 869.231 1120.99 870.108 1111.15 873.064 C 1105.64 874.72 1092.37 880.687 1086.9 879.685 C 1086.27 879.57 1084.92 878.551 1084.45 878.064 C 1073.58 866.666 1089.25 808.27 1033.79 802.354 C 1013.9 800.233 1001.22 809.098 983.094 813.24 C 979.863 812.422 969.396 809.553 966.651 809.322 z"/>
<path transform="translate(0,0)" fill="rgb(182,102,54)" d="M 318.142 1026.72 C 334.278 1015.06 342.699 1018.63 361.309 1017.34 C 385.582 1016.14 398.499 999.803 407.26 978.876 C 410.259 971.711 415.353 959.098 424.344 958.508 C 424.625 961.43 434.664 973.821 437.25 977.228 C 451.687 996.246 469.168 1033.86 488.899 1046.98 C 483.028 1068.61 468.693 1091.77 461.106 1114.02 C 397.54 1083.84 363.163 1099.89 318.142 1026.72 z"/>
<path transform="translate(0,0)" fill="rgb(242,174,119)" d="M 556.499 166.407 C 561.39 164.115 564.857 162.352 569.061 159.026 C 584.701 146.652 619.541 139.771 638.083 147.417 C 656.195 154.886 673.959 163.536 692.437 170.846 C 668.426 193.872 666.072 199.117 656.573 230.24 C 625.061 257.253 627.381 270.687 642.999 307.887 C 639.791 314.847 637.077 320.325 633.381 327.039 C 625.174 338.479 618.351 326.574 614.333 318.67 C 609.388 311.894 605.904 310.367 598.542 306.171 C 603.562 295.245 609.124 291.314 614.723 281.766 C 615.794 257.423 612.715 251.149 597.044 231.527 C 595.407 229.477 588.807 221.099 588.308 219.498 C 583.44 203.887 586.035 197.623 573.276 184.198 C 568.476 179.147 560.712 172.037 556.499 166.407 z"/>
<path transform="translate(0,0)" fill="rgb(242,174,119)" d="M 614.333 318.67 C 618.351 326.574 625.174 338.479 633.381 327.039 C 634.617 332.258 641.373 339.264 640.436 347.283 C 639.373 348.154 637.629 349.963 636.636 349.928 C 633.741 349.825 632.447 349.991 630.307 352.217 C 621.41 361.467 615.345 389.567 604.404 395.264 C 598.901 395.093 598.741 390.709 599.303 386.388 L 599.444 385.353 C 595.789 365.407 601.138 369.165 590.716 344.825 C 594.658 340.365 602.285 333.412 606.711 329.287 C 608.423 325.432 611.299 321.597 614.333 318.67 z"/>
<path transform="translate(0,0)" fill="rgb(103,86,124)" d="M 614.333 318.67 C 618.351 326.574 625.174 338.479 633.381 327.039 C 634.617 332.258 641.373 339.264 640.436 347.283 C 639.373 348.154 637.629 349.963 636.636 349.928 C 633.741 349.825 632.447 349.991 630.307 352.217 C 621.41 361.467 615.345 389.567 604.404 395.264 C 598.901 395.093 598.741 390.709 599.303 386.388 L 599.444 385.353 C 600.229 388.302 600.18 388.544 602.304 390.579 C 608.029 389.052 615.234 359.9 623.282 353.818 C 628.801 349.647 635.708 346.881 641.721 343.758 C 627.512 345.055 618.577 348.228 611.705 332.812 C 610.412 329.91 609.333 329.766 606.711 329.287 C 608.423 325.432 611.299 321.597 614.333 318.67 z"/>
<path transform="translate(0,0)" fill="rgb(130,128,176)" d="M 595.244 307.325 C 597.98 308.132 598.657 310.085 599.24 312.514 C 598.407 316.358 596.146 318.489 593.606 321.453 L 591.717 321.094 C 590.926 316.396 593.083 311.408 595.244 307.325 z"/>
</svg>